<?xml version="1.0" standalone="no"?><!DOCTYPE svg PUBLIC "-//W3C//DTD SVG 1.1//EN" "http://www.w3.org/Graphics/SVG/1.1/DTD/svg11.dtd"><svg t="1704726654930" class="icon" viewBox="0 0 1024 1024" version="1.1" xmlns="http://www.w3.org/2000/svg" p-id="4380" xmlns:xlink="http://www.w3.org/1999/xlink" width="64" height="64"><path d="M311.296 460.8h266.24c59.392 0 108.544-49.152 108.544-108.544s-49.152-108.544-108.544-108.544h-266.24V460.8z m-30.72-296.96h296.96c104.448 0 190.464 83.968 190.464 190.464 0 55.296-22.528 104.448-61.44 139.264 55.296 34.816 92.16 98.304 92.16 167.936 0 110.592-90.112 198.656-198.656 198.656h-368.64v-696.32h49.152z m30.72 614.4h286.72c65.536 0 116.736-53.248 116.736-116.736s-53.248-116.736-116.736-116.736h-286.72v233.472z" fill="#32373B" p-id="4381"></path></svg>