<?xml version="1.0" standalone="no"?><!DOCTYPE svg PUBLIC "-//W3C//DTD SVG 1.1//EN" "http://www.w3.org/Graphics/SVG/1.1/DTD/svg11.dtd"><svg t="1704726709581" class="icon" viewBox="0 0 1024 1024" version="1.1" xmlns="http://www.w3.org/2000/svg" p-id="6524" xmlns:xlink="http://www.w3.org/1999/xlink" width="64" height="64"><path d="M768 800a31.36 31.36 0 0 1-29.44-19.84L512 214.4l-226.56 565.76a32 32 0 1 1-58.88-24.32l256-640a32.64 32.64 0 0 1 58.88 0l256 640a31.36 31.36 0 0 1-17.28 41.6 29.44 29.44 0 0 1-12.16 2.56z" p-id="6525"></path><path d="M657.92 544H358.4a32 32 0 0 1 0-64h299.52a32 32 0 1 1 0 64zM800 960h-576a32 32 0 0 1 0-64h576a32 32 0 0 1 0 64z" p-id="6526"></path></svg>