<svg xmlns="http://www.w3.org/2000/svg" xmlns:xlink="http://www.w3.org/1999/xlink" fill="none" version="1.1" width="512.2177124023438" height="500.000244140625" viewBox="0 0 512.2177124023438 500.000244140625"><g style="mix-blend-mode:passthrough"><g style="mix-blend-mode:passthrough"><path d="M167.3081298675537,375.97326794433593C175.50812986755372,370.67626794433596,183.5871298675537,372.1202679443359,190.81112986755372,377.57826794433595C196.5891298675537,381.93926794433594,202.2481298675537,381.32326794433595,208.40112986755372,379.57126794433594C243.8221298675537,369.4592679443359,258.7371298675537,335.28226794433596,241.89612986755373,302.4422679443359C229.9641298675537,279.16726794433595,209.5651298675537,265.73726794433594,185.7141298675537,258.08626794433593C168.8731298675537,252.68226794433593,151.1231298675537,249.85926794433593,133.6130298675537,246.85026794433594C114.97952986755371,243.65326794433594,97.04162986755371,238.77026794433593,80.98982986755371,228.60426794433593C48.632129867553715,208.12526794433595,33.57019986755371,178.88426794433593,37.69015986755371,140.50666794433593C40.17818986755371,117.33856794433594,46.70591986755371,95.38776794433593,60.14932986755371,72.91526794433594C61.70092986755371,80.35259794433594,63.065329867553714,85.56946794433594,63.86792986755371,90.87986794433594C69.3389298675537,127.18366794433594,85.48432986755371,158.44456794433594,109.10722986755371,186.05326794433594C113.97632986755372,191.73826794433592,119.71482986755372,197.06226794433593,126.0017298675537,201.07526794433593C143.2441298675537,212.07126794433594,160.96812986755373,222.30426794433595,178.53112986755372,232.80426794433595C194.16812986755372,242.15426794433594,210.30012986755372,250.76926794433595,225.37612986755371,260.94826794433595C238.8321298675537,270.04426794433596,248.9321298675537,282.59226794433596,254.7501298675537,297.72026794433594C262.62912986755373,287.9022679443359,269.21012986755375,276.5992679443359,278.6411298675537,268.72026794433594C292.19112986755374,257.40426794433597,307.49412986755374,248.04026794433594,322.6501298675537,238.85026794433594C335.57112986755374,231.02526794433595,349.5501298675537,224.96626794433593,362.7261298675537,217.54226794433595C408.6741298675537,191.67226794433594,435.0121298675537,151.58246794433592,446.5561298675537,100.96576794433594C448.2411298675537,93.60866794433593,449.5921298675537,86.17136794433594,451.1981298675537,78.80092794433594C451.3581298675537,78.05184794433593,452.2811298675537,77.44990794433593,453.6321298675537,75.87147794433594C468.9351298675537,104.25636794433593,477.48212986755374,133.71146794433594,474.37912986755373,165.62776794433594C472.05212986755373,189.53126794433592,459.8251298675537,208.25826794433593,440.5101298675537,222.33026794433593C422.51812986755374,235.45326794433595,402.21312986755373,242.82326794433592,380.36912986755374,246.56926794433593C365.4681298675537,249.11026794433593,350.5131298675537,251.67826794433594,335.8391298675537,255.29026794433594C313.7411298675537,260.7482679443359,293.8231298675537,270.8202679443359,279.8851298675537,289.34726794433595C273.5981298675537,297.69426794433593,267.8861298675537,307.43226794433593,265.3041298675537,317.42426794433595C257.78712986755374,346.54526794433593,278.8951298675537,376.4012679443359,309.3001298675537,380.96226794433596C313.11212986755373,381.53726794433595,317.9541298675537,379.6782679443359,321.37912986755373,377.48426794433595C329.2841298675537,372.4282679443359,336.9621298675537,371.54526794433593,345.2291298675537,375.87926794433594C328.3751298675537,395.27526794433595,310.0621298675537,413.57426794433593,295.1611298675537,434.3082679443359C280.5001298675537,454.69426794433593,269.2911298675537,477.55426794433595,256.1681298675537,500.0002679443359C242.8451298675537,477.27326794433594,231.38212986755372,454.10526794433594,216.52012986755372,433.37126794433595C201.9271298675537,412.9592679443359,183.8681298675537,395.00826794433596,167.3081298675537,375.97326794433593C167.3081298675537,375.97326794433593,167.3081298675537,375.97326794433593,167.3081298675537,375.97326794433593ZM277.38312986755375,420.9712679443359C269.7991298675537,415.95526794433596,262.8571298675537,411.36726794433594,255.9281298675537,406.79226794433595C248.7181298675537,411.76826794433595,241.89612986755373,416.46326794433594,234.8861298675537,421.30626794433596C242.0161298675537,433.1972679443359,248.77112986755373,444.4472679443359,256.2751298675537,456.96826794433593C263.61912986755374,444.46126794433593,270.25412986755373,433.13126794433595,277.38312986755375,420.9712679443359C277.38312986755375,420.9712679443359,277.38312986755375,420.9712679443359,277.38312986755375,420.9712679443359ZM291.83012986755375,398.63326794433596C276.27312986755373,392.07826794433595,264.1011298675537,382.00626794433595,255.79412986755372,365.3922679443359C248.3431298675537,382.79526794433593,235.83612986755372,391.4762679443359,219.0751298675537,398.56626794433595C235.12712986755372,404.0502679443359,245.84212986755372,397.36226794433594,256.24912986755373,389.8582679443359C266.9501298675537,398.75326794433596,278.05212986755373,403.7162679443359,291.83012986755375,398.63326794433596C291.83012986755375,398.63326794433596,291.83012986755375,398.63326794433596,291.83012986755375,398.63326794433596Z" fill="#000000" fill-opacity="1"/></g><g style="mix-blend-mode:passthrough"><path d="M172.23100190734863,344.1098842773438C180.47100190734864,342.2638842773438,187.97500190734863,341.22088427734377,195.06500190734863,338.86688427734373C210.58100190734862,333.74388427734374,217.25600190734863,321.5978842773437,213.45700190734863,306.84388427734376C209.76500190734862,292.5308842773437,195.43900190734863,282.6988842773437,181.00600190734863,285.4538842773437C174.55800190734863,286.68488427734377,168.43200190734862,289.68088427734375,162.21200190734862,292.02188427734376C144.35400190734865,298.75088427734374,126.72400190734864,306.1748842773437,108.62600190734864,312.20688427734376C74.78320190734863,323.48388427734375,39.66990190734863,307.61888427734374,22.119901907348634,283.05988427734377C-0.7672650926513672,251.02328427734375,-5.6630680926513675,215.66918427734376,6.362401907348633,175.79388427734375C9.612891907348633,179.61956427734376,11.953801907348632,181.90693427734374,13.746201907348633,184.56886427734375C26.494001907348633,203.40298427734376,40.16480190734863,221.32748427734376,57.83520190734863,236.04158427734376C80.36120190734863,254.80888427734374,105.99100190734863,264.26598427734376,135.24500190734864,262.94178427734374C155.16300190734864,262.04548427734375,174.25100190734864,264.5736842773438,192.32200190734864,273.29518427734376C205.44500190734863,279.6218842773437,216.53400190734862,288.20988427734375,223.67700190734863,301.1988842773437C232.81300190734862,317.8118842773438,230.52600190734864,339.74988427734377,218.31300190734862,353.62088427734375C208.86900190734863,364.3358842773438,194.26200190734863,367.55888427734374,181.95600190734862,361.64688427734376C174.54500190734862,358.0888842773437,172.65900190734862,354.82488427734376,172.23100190734863,344.1098842773438C172.23100190734863,344.1098842773438,172.23100190734863,344.1098842773438,172.23100190734863,344.1098842773438Z" fill="#000000" fill-opacity="1"/></g><g style="mix-blend-mode:passthrough"><path d="M504.89095429992676,176.1282958984375C521.7449542999268,218.6521958984375,508.5559542999267,272.1581958984375,475.23495429992676,298.2822958984375C456.6019542999268,312.88929589843747,435.23995429992675,318.7622958984375,411.29595429992673,314.0002958984375C388.7699542999268,309.5182958984375,368.29025429992674,299.8472958984375,347.62355429992675,290.5242958984375C338.60775429992674,286.4572958984375,329.6053542999268,283.1402958984375,319.3322542999268,286.2832958984375C306.41055429992673,290.2432958984375,297.84955429992675,300.7172958984375,297.87635429992673,313.5582958984375C297.90305429992674,326.4002958984375,305.1798542999268,335.7362958984375,318.66345429992674,339.4282958984375C325.45865429992676,341.28829589843747,332.48135429992675,342.2912958984375,339.28995429992676,343.6552958984375C339.42375429992677,355.9882958984375,335.4241542999267,361.74029589843747,324.6293542999268,363.7072958984375C311.23945429992676,366.14129589843753,300.09685429992675,362.16829589843746,291.73653429992675,350.9992958984375C276.5675942999268,330.7202958984375,282.35960229992673,298.8712958984375,304.9524542999268,282.4182958984375C325.08415429992675,267.7438958984375,348.05155429992675,262.0454958984375,372.85155429992676,262.6474958984375C382.14825429992675,262.8748958984375,391.63195429992675,263.0353958984375,400.74195429992676,261.5104958984375C430.1299542999268,256.6146958984375,453.5249542999268,240.9775958984375,472.54695429992677,218.6387958984375C480.61295429992674,209.1815958984375,487.7289542999267,198.9084958984375,495.2599542999268,188.9964958984375C498.2029542999268,185.1574258984375,501.05195429992676,181.2782458984375,504.89095429992676,176.1282958984375C504.89095429992676,176.1282958984375,504.89095429992676,176.1282958984375,504.89095429992676,176.1282958984375Z" fill="#000000" fill-opacity="1"/></g><g style="mix-blend-mode:passthrough"><path d="M343.34307871398926,0.2273997962474823C377.34607871398924,13.750999796247482,404.2999787139893,34.59159979624748,415.12097871398925,70.48069979624748C427.2539787139892,110.70339979624748,421.92997871398927,148.34539979624748,391.32497871398925,179.11139979624747C379.88767871398926,190.60139979624748,366.08307871398927,200.16539979624747,352.1715787139893,208.67339979624748C331.99977871398926,220.99339979624747,308.87187871398925,226.35739979624748,285.56997871398926,232.47039979624748C319.3857787139893,203.8313997962475,342.70097871398923,168.75739979624748,354.37867871398925,126.30039979624748C366.25697871398927,83.12149979624748,364.17027871398926,41.11929979624748,343.34307871398926,0.2273997962474823C343.34307871398926,0.2273997962474823,343.34307871398926,0.2273997962474823,343.34307871398926,0.2273997962474823Z" fill="#000000" fill-opacity="1"/></g><g style="mix-blend-mode:passthrough"><path d="M228.4928908843994,234.423C193.44589088439943,223.508,160.8608908843994,213.315,133.62639088439943,191.351C92.23950588439942,157.976,80.04009088439942,103.16,103.18149088439941,55.4991C114.68529088439942,31.8227,142.1203908843994,8.52083,168.65939088439941,0C130.1216908843994,91.8564,157.6237908843994,167.072,228.4928908843994,234.423C228.4928908843994,234.423,228.4928908843994,234.423,228.4928908843994,234.423Z" fill="#000000" fill-opacity="1"/></g></g></svg>