<svg xmlns="http://www.w3.org/2000/svg" xmlns:xlink="http://www.w3.org/1999/xlink" fill="none" version="1.1" width="432.158203125" height="500.00006103515625" viewBox="0 0 432.158203125 500.00006103515625"><g style="mix-blend-mode:passthrough"><g style="mix-blend-mode:passthrough"><path d="M152.4125518798828,386.26723657226563C158.0671618798828,387.96923657226563,163.7086518798828,389.6702365722656,170.2795518798828,391.6472365722656C182.66205187988282,376.9344365722656,191.86385187988282,360.2455365722656,198.5525518798828,342.3785365722656C205.16265187988282,324.6948365722656,210.2151518798828,306.4220365722656,216.9038518798828,285.3612365722656C224.92765187988283,325.4147365722656,237.7813518798828,360.78213657226564,261.51255187988284,391.67323657226564C268.0305518798828,389.6702365722656,273.6985518798828,387.94223657226564,280.33455187988284,385.91323657226565C258.5545518798828,424.51423657226565,237.3756518798828,462.0152365722656,215.96145187988282,499.9742365722656C216.56355187988282,499.9742365722656,216.1184518798828,500.0402365722656,215.69965187988282,499.96123657226565C215.3200518798828,499.8832365722656,214.8619518798828,499.7392365722656,214.62625187988283,499.45123657226566C214.06345187988282,498.7962365722656,213.5006518798828,498.1162365722656,213.1341518798828,497.3432365722656C195.2147518798828,459.3062365722656,174.66445187988282,422.72123657226564,152.4125518798828,386.26723657226563C152.4125518798828,386.26723657226563,152.4125518798828,386.26723657226563,152.4125518798828,386.26723657226563ZM239.11645187988282,401.85623657226563C235.3729518798828,392.47123657226564,230.41205187988282,381.42413657226564,226.53765187988282,369.99703657226564C222.6762518798828,358.6355365722656,219.91445187988282,346.92053657226563,216.57665187988283,335.04843657226564C208.48735187988282,359.0805365722656,200.80395187988282,381.92143657226563,192.96335187988282,405.23323657226564C200.4243518798828,412.31523657226563,208.4088518798828,419.9072365722656,216.19705187988282,427.30223657226566C223.8542518798828,418.7942365722656,230.80475187988282,411.08423657226564,239.11645187988282,401.85623657226563C239.11645187988282,401.85623657226563,239.11645187988282,401.85623657226563,239.11645187988282,401.85623657226563Z" fill="#000000" fill-opacity="1"/></g><g style="mix-blend-mode:passthrough"><path d="M132.333,125.91969299316406C125.723,131.98007299316407,121.325,135.99849299316406,116.495,140.42269299316405C131.653,177.40019299316407,156.352,206.72039299316407,185.777,233.16069299316405C148.473,220.76519299316408,110.723,214.63939299316405,71.1407,219.49559299316405C69.57,225.77849299316406,68.0647,231.79969299316406,66.4678,238.18669299316406C43.9017,200.05789299316405,21.8723,162.85789299316406,0,125.91969299316406C42.9462,125.91969299316406,86.1804,125.91969299316406,132.333,125.91969299316406C132.333,125.91969299316406,132.333,125.91969299316406,132.333,125.91969299316406ZM70.5648,192.92419299316407C96.0236,198.30389299316408,120.2,203.40869299316407,142.399,208.10779299316408C126.954,190.79059299316407,110.33,172.16439299316406,93.5235,153.34189299316407C83.6934,156.18229299316405,73.3528,159.16669299316408,62.7897,162.21649299316405C65.4468,172.71419299316406,68.0778,183.09399299316408,70.5648,192.92419299316407C70.5648,192.92419299316407,70.5648,192.92419299316407,70.5648,192.92419299316407Z" fill="#000000" fill-opacity="1"/></g><g style="mix-blend-mode:passthrough"><path d="M432.15831298828124,125.90659332276256C410.10331298828123,163.1588933227539,388.07331298828126,200.3719933227539,365.55931298828125,238.4095933227539C364.08031298828126,231.9955933227539,362.7193129882812,226.1575933227539,361.20131298828124,219.5478933227539C322.02451298828123,214.6131933227539,284.22241298828123,220.4902933227539,246.70831298828125,233.1085933227539C275.5834129882812,206.75959332275391,300.24381298828126,177.6618933227539,316.1081129882813,139.6241933227539C311.3436129882813,136.0508933227539,306.26491298828125,132.2418433227539,301.1862129882812,128.4328433227539C301.64441298828126,127.5951233227539,302.08941298828125,126.75739532275391,302.54751298828126,125.9196755227539C345.72931298828127,125.90658613284391,388.92431298828126,125.90659332276256,432.15831298828124,125.90659332276256C432.15831298828124,125.90659332276256,432.15831298828124,125.90659332276256,432.15831298828124,125.90659332276256ZM338.75271298828125,153.3156933227539C321.38311298828125,172.7010933227539,304.83821298828127,191.1570933227539,289.6545129882812,208.1077933227539C312.32531298828127,203.3301933227539,336.73691298828123,198.1860933227539,361.51531298828127,192.96339332275392C363.98931298828126,183.30349332275392,366.6593129882813,172.8842933227539,369.3823129882812,162.2426933227539C359.06731298828123,159.2320933227539,348.74031298828123,156.2215933227539,338.75271298828125,153.3156933227539C338.75271298828125,153.3156933227539,338.75271298828125,153.3156933227539,338.75271298828125,153.3156933227539Z" fill="#000000" fill-opacity="1"/></g><g style="mix-blend-mode:passthrough"><path d="M215.38544675292968,0C237.0483467529297,38.4827,258.1095467529297,75.8921,279.7855467529297,114.414C273.9995467529297,112.896,268.16154675292967,111.351,261.4995467529297,109.597C237.71594675292968,140.187,224.8883467529297,175.751,216.1054467529297,213.749C207.3355467529297,175.986,194.5864467529297,140.462,170.54134675292968,109.427C164.41544675292968,111.273,158.73472675292967,112.987,150.2135467529297,115.566C162.7138467529297,95.0811,174.3634467529297,77.1356,184.83494675292968,58.5356C195.48964675292967,39.5953,205.0056467529297,20.0136,215.38544675292968,0C215.38544675292968,0,215.38544675292968,0,215.38544675292968,0ZM193.27754675292968,96.8875C200.94794675292968,119.637,208.57904675292968,142.308,216.0399467529297,164.442C223.5794467529297,142.19,231.2628467529297,119.493,239.2212467529297,96.0236C231.9697467529297,89.0993,223.9721467529297,81.4551,215.6865467529297,73.5491C207.55804675292967,82.0049,200.1102467529297,89.7669,193.27754675292968,96.8875C193.27754675292968,96.8875,193.27754675292968,96.8875,193.27754675292968,96.8875Z" fill="#000000" fill-opacity="1"/></g><g style="mix-blend-mode:passthrough"><path d="M246.69520568847656,268.31889397460935C283.93440568847655,279.7982739746094,321.5140056884766,287.3900739746094,361.0832056884766,281.55227397460936C362.60120568847657,275.23007397460935,363.98920568847655,269.41838397460936,365.57320568847655,262.7820739746094C388.15220568847656,300.89827397460937,410.27320568847654,338.22917397460935,432.14520568847655,375.14107397460936C389.55220568847653,375.14107397460936,346.16130568847655,375.14107397460936,300.16530568847656,375.14107397460936C306.33040568847656,369.3820739746094,310.61060568847654,365.37607397460937,315.72850568847656,360.58577397460937C300.6365056884766,324.2235739746094,276.30330568847654,294.79867397460936,246.69520568847656,268.31889397460935C246.69520568847656,268.31889397460935,246.69520568847656,268.31889397460935,246.69520568847656,268.31889397460935ZM361.4492056884766,307.92727397460936C336.71080568847657,302.87477397460935,312.61320568847657,297.9400739746094,290.1519056884766,293.35887397460937C305.5973056884766,310.7022739746094,322.15540568847655,329.3153739746094,338.6349056884766,347.8236739746094C348.70020568847656,344.9047739746094,359.0022056884766,341.9203739746094,369.36920568847654,338.9228739746094C366.5022056884766,327.7183739746094,363.84520568847654,317.2992739746094,361.4492056884766,307.92727397460936C361.4492056884766,307.92727397460936,361.4492056884766,307.92727397460936,361.4492056884766,307.92727397460936Z" fill="#000000" fill-opacity="1"/></g><g style="mix-blend-mode:passthrough"><path d="M66.6772351377964,262.66424560546875C68.0516351377964,268.88169560546874,69.2689351377964,274.33994560546876,70.8003351377964,281.29044560546873C109.9766351377964,287.9005456054688,147.8186351377964,279.62804560546874,185.7376351377964,268.14869560546873C156.5356351377964,294.3405456054688,131.8756351377964,323.55594560546876,115.9066351377964,361.85544560546873C120.4746351377964,365.50724560546877,125.3826351377964,369.4082456054688,132.4906351377964,375.07524560546875C86.1280351377964,375.07524560546875,42.920035137796404,375.07524560546875,0.09163513779640198,375.07524560546875C21.7676351377964,338.47784560546876,43.8232351377964,301.2386456054687,66.6772351377964,262.66424560546875C66.6772351377964,262.66424560546875,66.6772351377964,262.66424560546875,66.6772351377964,262.66424560546875ZM70.6040351377964,307.94034560546874C68.1956351377964,317.7311456054687,65.5646351377964,328.4383456054687,62.9467351377964,339.1061456054688C74.2559351377964,342.29994560546874,84.59653513779641,345.21884560546874,93.5497351377964,347.74514560546874C110.5266351377964,328.68704560546877,126.8226351377964,310.41424560546875,141.9806351377964,293.3849456054688C119.4016351377964,297.99244560546873,95.2905351377964,302.90094560546873,70.6040351377964,307.94034560546874C70.6040351377964,307.94034560546874,70.6040351377964,307.94034560546874,70.6040351377964,307.94034560546874Z" fill="#000000" fill-opacity="1"/></g><g style="mix-blend-mode:passthrough"><path d="M254.1299327392578,316.80152893066406C246.85193273925782,313.56852893066406,239.48293273925782,310.9635289306641,232.88603273925781,307.0505289306641C229.9932327392578,305.33552893066405,227.8204327392578,301.1995289306641,226.81253273925782,297.74352893066407C223.31763273925782,285.740528930664,220.4903327392578,273.5546289306641,216.70753273925783,258.72432893066406C214.83573273925782,263.18782893066407,213.7231327392578,265.1905289306641,213.1603327392578,267.32402893066404C211.52413273925782,273.63312893066404,209.2335327392578,279.94222893066404,208.7754327392578,286.36952893066405C207.4010327392578,305.68852893066406,194.6650327392578,312.4955289306641,177.60963273925782,316.12152893066406C176.8111327392578,309.81252893066403,176.37923273925782,303.80452893066405,175.2404327392578,297.92652893066406C174.0362327392578,291.69652893066404,175.9472327392578,286.9975289306641,180.48923273925783,282.82192893066406C186.2616327392578,277.5338289306641,191.82463273925782,271.99702893066404,197.44003273925782,266.5387289306641C200.80393273925782,263.25332893066405,204.1024327392578,259.8893289306641,206.6025327392578,254.71902893066408C203.1469327392578,255.56982893066407,199.66523273925782,256.36822893066403,196.22273273925782,257.3107289306641C192.45293273925782,258.3447289306641,188.73553273925782,259.6275289306641,184.9527327392578,260.6092289306641C158.8002327392578,267.42882893066405,165.77683273925783,271.1069289306641,139.4279327392578,250.20312893066406C146.5878127392578,245.00672893066405,153.1848327392578,239.71862893066407,160.3447327392578,235.34672893066406C162.45213273925782,234.06402893066405,166.2742327392578,234.83632893066405,169.07533273925782,235.55622893066408C178.34263273925782,237.93842893066406,187.4920327392578,240.73962893066405,196.7070327392578,243.34432893066406C200.7647327392578,244.49622893066407,204.83553273925781,245.58262893066407,211.74663273925782,247.48062893066407C201.0657327392578,237.32322893066407,192.89803273925781,228.88062893066405,183.9972327392578,221.28882893066407C176.2745327392578,214.69172893066406,172.9236327392578,207.33552893066405,175.6854327392578,197.29592893066408C176.70643273925782,193.57859893066407,176.78503273925782,189.59943893066406,177.2823327392578,185.75116493066406C196.54993273925783,187.59676893066407,203.48723273925782,193.27755893066407,207.95073273925783,210.83042893066406C210.38533273925782,220.42492893066407,212.64983273925782,230.07172893066405,217.0217327392578,239.98042893066406C217.7154327392578,237.97772893066406,218.55313273925782,236.01432893066408,219.0636327392578,233.95932893066407C220.6474327392578,227.63712893066406,222.92493273925783,221.34112893066407,223.47473273925783,214.91422893066405C225.08473273925782,196.18342893066406,236.6295327392578,187.97634893066407,253.5799327392578,184.92652893066406C254.1039327392578,185.54172893066405,254.99393273925782,186.10457893066408,255.08593273925783,186.77213893066406C258.6849327392578,211.81212893066407,258.67193273925784,211.81212893066407,240.0589327392578,229.33872893066405C234.39123273925782,234.66612893066406,228.76283273925782,240.03272893066406,223.9459327392578,246.95702893066408C234.6268327392578,243.75012893066406,245.4909327392578,241.04062893066407,255.9499327392578,237.20542893066406C266.4469327392578,233.34412893066406,275.2959327392578,234.49592893066406,283.2929327392578,242.46742893066406C285.9769327392578,245.13762893066405,289.1699327392578,247.28422893066406,293.30693273925783,250.60892893066406C286.42193273925784,255.51752893066407,280.8849327392578,260.50452893066404,274.4449327392578,263.64592893066407C270.6489327392578,265.49152893066406,265.1779327392578,265.46532893066404,260.8969327392578,264.45752893066407C249.1299327392578,261.68252893066403,237.5981327392578,257.93902893066405,223.46163273925782,253.85512893066408C225.9617327392578,257.4416289306641,226.7994327392578,259.13012893066406,228.0691327392578,260.36052893066403C232.4540327392578,264.58842893066407,237.1924327392578,268.47592893066405,241.44693273925782,272.834728930664C260.0069327392578,291.8275289306641,260.2689327392578,284.2224289306641,254.1299327392578,316.80152893066406C254.1299327392578,316.80152893066406,254.1299327392578,316.80152893066406,254.1299327392578,316.80152893066406Z" fill="#000000" fill-opacity="1"/></g></g></svg>