<svg xmlns="http://www.w3.org/2000/svg" xmlns:xlink="http://www.w3.org/1999/xlink" fill="none" version="1.1" width="530.032958984375" height="500.000244140625" viewBox="0 0 530.032958984375 500.000244140625"><g style="mix-blend-mode:passthrough"><g style="mix-blend-mode:passthrough"><path d="M57.8179,279.8422551269531C54.5516,283.2362551269531,51.1156,286.7422551269531,47.7362,290.3052551269531C41.6702,296.7112551269531,34.9538,299.70825512695313,26.4274,294.87325512695315C18.0283,290.1222551269531,9.54441,285.51225512695316,0,280.2522551269531C8.80914,269.7182551269531,17.7597,262.7472551269531,28.2939,259.04225512695314C32.7055,257.48725512695313,39.0967,260.0042551269531,44.0598,261.9832551269531C48.118,263.59525512695313,51.3984,267.1582551269531,57.6907,271.83925512695316C55.1596,249.05925512695313,56.913,229.43325512695313,60.7732,209.70825512695313C64.7606,189.31875512695314,74.7999,172.25195512695313,88.2045,152.85205512695313C81.2477,153.6014551269531,77.4017,153.82765512695312,73.6263,154.46395512695312C50.4228,158.40895512695312,36.8768,151.38145512695314,27.4455,129.77575512695313C24.0661,122.05535512695312,21.5916,113.92495512695312,18.9191,105.90765512695313C18.0708,103.36247512695313,17.9294,100.57691512695312,17.3638,97.23990512695312C20.3756,96.53291412695313,22.5814,95.50070112695313,24.7165,95.61382042695313C34.572,96.13699512695312,44.3992,96.95711512695313,54.2405,97.70652512695312C72.5234,99.09223512695313,84.3019,109.68295512695312,87.8652,127.83855512695312C88.9398,133.33895512695312,90.0851,138.8111551269531,91.2304,144.45295512695313C96.8298,147.11125512695313,99.8416,142.74205512695312,103.235,139.92815512695313C122.974,123.58245512695312,145.74,113.67045512695313,170.951,110.64455512695312C201.352,106.99645512695312,227.44,117.65785512695312,248.961,138.96665512695313C258.477,148.3838551269531,257.911,156.06175512695313,249.031,166.0303551269531C243.842,171.84185512695313,239.939,172.35095512695312,235.344,165.7758551269531C220.073,143.95805512695313,197.209,140.64935512695314,173.864,141.85125512695313C122.522,144.48125512695313,87.6248,182.85685512695312,87.0592,234.39625512695312C86.5219,283.1082551269531,106.685,320.6642551269531,147.564,346.5402551269531C163.754,356.7912551269531,181.16,365.38825512695314,198.722,373.0942551269531C224.272,384.3072551269531,247.32,397.9662551269531,261.079,423.47525512695313C261.729,424.69125512695314,262.761,425.7092551269531,264.274,427.70325512695314C266.961,424.7762551269531,269.379,422.7542551269531,271.005,420.23725512695313C283.42,401.1202551269531,300.359,387.61625512695315,321.003,378.12825512695315C339.329,369.70125512695313,357.626,361.06125512695314,375.329,351.4182551269531C412.715,331.0282551269531,436.116,299.51125512695313,442.804,257.5862551269531C449.054,218.39025512695312,439.269,182.70125512695313,406.168,158.40895512695312C377.577,137.42545512695312,344.871,135.65795512695314,312.576,150.6886551269531C304.092,154.63365512695313,297.715,163.10345512695312,289.938,169.86225512695313C273.776,164.0507551269531,269.76,151.09865512695313,282.274,139.02325512695313C308.956,113.30275512695313,340.29,103.57457512695312,376.743,114.00975512695312C395.492,119.38295512695312,412.955,127.20225512695313,427.703,140.36655512695313C430.46,142.82685512695312,433.868,144.58015512695312,438.393,147.60615512695313C439.807,140.55035512695312,440.867,134.39945512695311,442.281,128.34765512695313C446.65,109.62645512695312,455.544,100.76073512695312,474.591,98.21556512695312C487.034,96.56119712695312,499.717,96.70259512695313,514.338,95.93904212695313C509.078,113.02005512695312,505.698,129.02635512695312,495.843,142.44505512695312C486.694,154.90235512695313,473.488,156.96675512695313,459.136,154.81745512695312C454.809,154.16705512695313,450.51,153.31865512695313,445.236,153.75695512695313C469.119,189.12075512695313,478.522,227.19925512695312,472.413,270.9902551269531C476.74,268.5872551269531,478.861,267.8372551269531,480.445,266.4662551269531C494.259,254.58825512695313,499.024,256.39825512695313,513.051,264.85425512695315C518.947,268.4032551269531,523.882,273.53625512695317,530.033,278.5982551269531C525.268,282.4442551269531,521.959,285.8512551269531,518,288.1992551269531C494.853,301.8582551269531,491.587,300.11925512695314,476.966,284.01325512695314C475.538,282.4302551269531,473.516,281.38325512695315,471.565,279.9272551269531C466.941,292.5822551269531,463.208,304.5022551269531,458.302,315.9132551269531C445.137,346.55425512695314,421.552,367.90525512695314,393.81,384.85925512695314C375.385,396.11425512695314,356.523,406.8322551269531,337.095,416.2212551269531C306.255,431.12425512695313,285.47,454.71025512695314,272.249,485.7042551269531C270.496,489.8052551269531,268.346,493.7502551269531,265.292,500.0002551269531C261.969,493.7362551269531,259.41,489.94625512695313,257.841,485.77525512695314C245.2,452.3342551269531,221.784,429.71025512695314,189.941,413.90225512695315C166.455,402.23725512695313,143.605,388.8602551269531,121.829,374.2262551269531C89.2792,352.33725512695315,68.9602,321.3852551269531,60.8439,282.7552551269531C60.7166,282.0482551269531,59.6278,281.5392551269531,57.8179,279.8422551269531C57.8179,279.8422551269531,57.8179,279.8422551269531,57.8179,279.8422551269531Z" fill="#000000" fill-opacity="1"/></g><g style="mix-blend-mode:passthrough"><path d="M231.35650189208985,335.7226774902344C216.18450189208983,326.46167749023436,201.26690189208983,316.74767749023437,185.75550189208985,308.0796774902344C170.11680189208985,299.35567749023437,153.71450189208986,292.24267749023437,135.02160189208985,294.7176774902344C129.13940189208984,295.4946774902344,123.31381189208984,296.7106774902344,116.00350189208984,297.9696774902344C120.55654189208984,283.6456774902344,131.35940189208983,279.4886774902344,142.07740189208985,276.01067749023434C144.33980189208984,269.01107749023436,138.38690189208984,266.3668774902344,136.05380189208984,262.16737749023434C131.07660189208985,253.2450774902344,123.83699189208984,245.58127749023436,123.22897189208985,234.45317749023437C121.92811189208985,210.52857749023437,134.18740189208984,194.05557749023438,153.07820189208985,182.40433749023438C167.52920189208984,173.49621349023437,184.18600189208985,171.61562749023437,200.72960189208985,176.43731749023436C212.69190189208985,179.9157274902344,222.43450189208983,186.60387749023437,226.36550189208984,200.74377749023438C221.71350189208982,201.01237749023437,218.09350189208985,201.5779774902344,214.50180189208984,201.38007749023438C193.19300189208985,200.2346774902344,181.98010189208986,214.51597749023438,177.69570189208986,231.25757749023438C172.09640189208983,253.14607749023438,178.21890189208983,272.1642774902344,192.41540189208985,288.6656774902344C202.20010189208983,300.03367749023437,213.31410189208984,310.22867749023436,223.57950189208984,321.18767749023436C227.27050189208984,325.1326774902344,230.19750189208986,329.81267749023436,233.47750189208983,334.13967749023436C232.77050189208984,334.6766774902344,232.06350189208985,335.19967749023436,231.35650189208985,335.7226774902344C231.35650189208985,335.7226774902344,231.35650189208985,335.7226774902344,231.35650189208985,335.7226774902344Z" fill="#000000" fill-opacity="1"/></g><g style="mix-blend-mode:passthrough"><path d="M305.60504919921874,201.12554772949218C305.12428919921877,189.51674772949218,313.2264291992187,184.5960477294922,320.73472919921875,180.39649772949218C353.70892919921874,161.9864477294922,401.45892919921874,185.8827477294922,407.12892919921876,223.2544477294922C409.00992919921873,235.5985477294922,405.41792919921875,246.47214772949218,398.39092919921876,256.4831477294922C394.40342919921875,262.1532477294922,390.50082919921874,267.8798477294922,385.79222919921875,274.6950477294922C397.55692919921876,279.8140477294922,409.88692919921874,282.8680477294922,413.80292919921874,297.2910477294922C407.32692919921874,296.3150477294922,401.9259291992188,295.3680477294922,396.4959291992187,294.6890477294922C379.4010291992188,292.5680477294922,363.83302919921874,297.78604772949217,349.32552919921875,305.8880477294922C334.57762919921873,314.1310477294922,320.4377291992188,323.4780477294922,306.0009291992188,332.3010477294922C303.42749919921874,333.87104772949215,300.7409291992187,335.2420477294922,298.1109091992187,336.6990477294922C297.40391919921876,335.8930477294922,296.69692319921876,335.10104772949217,295.98992919921875,334.2950477294922C304.57282919921875,324.72204772949215,312.87292919921873,314.8810477294922,321.8093291992187,305.6470477294922C333.24852919921875,293.8120477294922,345.46532919921873,282.8400477294922,351.30512919921875,266.6073477294922C356.86202919921874,251.15244772949217,356.60752919921873,236.43284772949218,349.42452919921874,221.6566477294922C342.24142919921877,206.8663477294922,330.6750291992187,199.9802477294922,314.2586291992188,201.0831477294922C311.52962919921873,201.28114772949218,308.75822919921876,201.12554772949218,305.60504919921874,201.12554772949218C305.60504919921874,201.12554772949218,305.60504919921874,201.12554772949218,305.60504919921874,201.12554772949218Z" fill="#000000" fill-opacity="1"/></g><g style="mix-blend-mode:passthrough"><path d="M265.2215167724609,135.517C252.02901677246095,121.56,238.25681677246092,111.026,228.72653677246095,96.2642C223.04231377246094,87.4551,221.35967677246094,78.0662,223.98969677246095,68.0835C225.53094677246094,62.2296,227.01562677246093,56.0363,230.12639677246094,50.9884C240.81611677246093,33.5822,252.21281677246094,16.6143,263.01571677246096,0C265.8295167724609,0.820113,267.10211677246093,0.791833,267.51221677246093,1.37157C280.19571677246097,19.2585,294.13761677246094,36.2264,303.0598167724609,56.6867C311.24681677246093,75.4504,307.45731677246096,91.5557,294.75971677246093,106.035C286.17681677246094,115.82,276.32131677246093,124.53,265.2215167724609,135.517C265.2215167724609,135.517,265.2215167724609,135.517,265.2215167724609,135.517Z" fill="#000000" fill-opacity="1"/></g></g></svg>