<svg xmlns="http://www.w3.org/2000/svg" xmlns:xlink="http://www.w3.org/1999/xlink" fill="none" version="1.1" width="500" height="499.99993896484375" viewBox="0 0 500 499.99993896484375"><g style="mix-blend-mode:passthrough"><g style="mix-blend-mode:passthrough"><path d="M137.965,304.7339998807907C142.533,309.6539998807907,144.83,312.1209998807907,147.14,314.5869998807907C168.524,337.4279998807907,202.181,335.4999998807907,220.361,309.4049998807907C237.032,285.4619998807907,239.959,259.1179998807907,227.857,232.34099988079072C206.079,184.1279998807907,147.258,165.09099988079072,98.7026,189.76899988079072C73.3418,202.6649998807907,56.3952,222.8689998807907,45.5525,248.7799998807907C34.2241,275.8459998807907,31.3494,304.4059998807907,30.2599,333.2819998807907C29.8923,343.0959998807907,30.2073,352.9349998807907,30.2073,364.24399988079074C-24.3342,277.5509998807907,-5.74677,130.7179998807907,91.9161,57.00019988079071C75.7834,87.69969988079072,55.6995,116.91699988079071,54.0324,156.01299988079072C58.8761,151.4989998807907,61.9478,148.69199988079072,64.9669,145.8319998807907C91.3648,120.72099988079071,120.756,101.1599998807907,157.484,94.42999988079072C192.073,88.09329988079071,231.545,98.70689988079071,259.938,123.31899988079071C254.097,124.80099988079071,248.912,125.94299988079071,243.832,127.43799988079071C219.915,134.48399988079072,207.97,154.14999988079072,212.498,178.8269998807907C218.248,210.23499988079072,248.177,234.97799988079072,282.91,236.97299988079072C340.34,240.25199988079072,374.837,194.1639998807907,379.365,152.7059998807907C383.33,116.3529998807907,370.531,85.90229988079071,346.299,59.57159988079071C328.013,39.74809988079071,306.118,24.67389988079071,282.569,11.869399880790711C275.703,8.13030988079071,268.707,4.62741988079071,261.198,0.7178308807907104C344.606,-8.42641011920929,480.992,70.35579988079071,500,204.8959998807907C481.833,175.1409998807907,464.728,144.46699988079072,432.463,123.42399988079072C435.508,138.3279998807907,438.593,150.86999988079071,440.562,163.5829998807907C445.524,195.75099988079072,442.807,227.0279998807907,428.748,256.9139998807907C414.361,287.48199988079074,390.103,306.5839998807907,357.155,319.4539998807907C358.73,314.0619998807907,359.688,310.5459998807907,360.791,307.08299988079074C371.004,275.0189998807907,351.392,246.6289998807907,317.657,244.68699988079072C278.027,242.4169998807907,242.335,271.3319998807907,234.656,311.9369998807907C225.441,360.5839998807907,256.958,409.3229998807907,306.564,423.0979998807907C329.93,429.5919998807907,353.296,428.7259998807907,376.386,422.0219998807907C404.227,413.9409998807907,430.481,402.2379998807907,454.503,385.7859998807907C457.325,383.8579998807907,460.292,382.1519998807907,463.757,380.0009998807907C450.762,417.7979998807907,388.83,467.0089998807907,330.534,487.21299988079073C273.262,507.0619998807907,200.159,502.2739998807907,168.012,483.3429998807907C195.919,480.79699988079074,223.735,483.17199988079074,250.251,474.4079998807907C256.42,472.3749998807907,262.432,469.8949998807907,271.332,466.57599988079073C265.478,464.5559998807907,262.17,463.3219998807907,258.823,462.27299988079074C236.245,455.1879998807907,214.218,446.8439998807907,194.58,433.3049998807907C166.135,413.6909998807907,146.55,387.7809998807907,139.172,353.6179998807907C137.532,345.9949998807907,137.006,338.0449998807907,136.77,330.2259998807907C136.534,322.87899988079073,137.4,315.5189998807907,137.965,304.7339998807907C137.965,304.7339998807907,137.965,304.7339998807907,137.965,304.7339998807907Z" fill="#000000" fill-opacity="1"/></g></g></svg>