<svg xmlns="http://www.w3.org/2000/svg" xmlns:xlink="http://www.w3.org/1999/xlink" fill="none" version="1.1" width="466.033203125" height="500.000244140625" viewBox="0 0 466.033203125 500.000244140625"><g style="mix-blend-mode:passthrough"><g style="mix-blend-mode:passthrough"><path d="M466.03328961181643,249.313C453.3422896118164,273.507,436.0942896118164,294.668,416.31928961181643,315.965C377.0562896118164,203.14,308.7192896118164,110.498,231.6532896118164,21.8791C188.2292896118164,72.3732,143.7781896118164,120.502,125.5393896118164,185.446C126.28228961181641,186.09,127.0127896118164,186.734,127.7557896118164,187.378C162.0540896118164,158.651,196.3642896118164,129.913,231.6902896118164,100.332C271.8212896118164,138.184,304.6212896118164,180.877,330.17728961181643,230.777C305.38928961181637,258.884,275.6592896118164,280.652,245.28628961181641,303.881C238.6992896118164,295.845,232.81728961181642,288.663,228.5212896118164,283.425C244.7412896118164,266.128,259.8472896118164,249.82,275.2012896118164,233.736C284.3642896118164,224.14,284.6732896118164,224.239,279.0152896118164,212.637C267.95828961181644,190.003,251.4522896118164,171.9,230.9972896118164,155.222C223.3082896118164,159.852,215.3092896118164,163.976,208.06628961181642,169.151C175.0802896118164,192.653,144.81818961181642,219.323,116.94618961181641,248.694C114.98988961181641,250.749,113.18208961181641,252.941,110.87898961181641,255.553C109.1207896118164,253.523,107.89488961181641,252.507,107.1643896118164,251.22C91.79828961181641,224.227,80.0724396118164,195.822,72.90322561181641,165.523C71.21926561181641,158.391,72.54414861181641,153.055,76.8283396118164,147.309C104.1059896118164,110.77,136.5841896118164,79.2204,170.8329896118164,49.4168C187.59828961181643,34.8184,205.0942896118164,21.0495,222.31728961181642,6.9711C225.4502896118164,4.40801,228.8802896118164,2.20401,231.9512896118164,0C302.6272896118164,41.4056,437.8892896118164,185.446,466.03328961181643,249.313C466.03328961181643,249.313,466.03328961181643,249.313,466.03328961181643,249.313Z" fill="#000000" fill-opacity="1"/></g><g style="mix-blend-mode:passthrough"><path d="M231.27,500.0002215576172C202.865,475.7312215576172,174.795,452.7752215576172,147.901,428.5062215576172C105.889,390.60422155761717,66.9351,349.7312215576172,33.5159,303.9422215576172C22.8426,289.3192215576172,13.5932,273.6683215576172,3.42749,258.6736215576172C-0.757652,252.5074215576172,-1.47581,247.00972155761718,3.32843,240.8063215576172C17.1716,222.90182155761718,30.7547,204.7993215576172,44.5112,186.8329215576172C45.4522,185.6071015576172,46.9628,184.8146515576172,49.0306,183.1802215576172C87.7617,294.8042215576172,155.95,387.1992215576172,231.852,474.7282215576172C266.645,452.03222155761716,332.951,350.9322215576172,338.709,310.39322155761715C302.33,339.0702215576172,269.109,368.7382215576172,233.325,397.88522155761723C193.381,360.3922215576172,160.717,317.6742215576172,134.789,267.4897215576172C159.38,239.6052215576172,189.257,217.88712155761718,219.569,194.4850215576172C225.933,202.1000215576172,231.889,209.2320215576172,237.436,215.8688215576172C229.734,224.20202155761717,222.999,231.8788215576172,215.842,239.1471215576172C206.295,248.82992155761718,196.575,258.3641215576172,186.632,267.63822155761716C182.361,271.6253215576172,181.519,275.5875215576172,183.797,280.8127215576172C194.111,304.4002215576172,210.53,323.1472215576172,229.895,339.6402215576172C233.375,342.59922155761717,236.817,341.7572215576172,240.123,339.6642215576172C248.134,334.6132215576172,256.356,329.82122155761715,263.934,324.1872215576172C295.075,300.9952215576172,324.197,275.4885215576172,350.546,246.9107215576172C351.636,245.72202155761718,352.899,244.69432155761717,353.988,243.6790215576172C354.967,244.0999215576172,355.932,244.1990215576172,356.23,244.69432155761717C373.156,272.78922155761717,385.129,302.8652215576172,392.633,334.7982215576172C394.131,341.1882215576172,392.063,345.74422155761715,388.448,350.6602215576172C367.584,379.0022215576172,343.501,404.46022155761716,317.424,427.9112215576172C293.836,449.1222215576172,269.208,469.1682215576172,244.989,489.6612215576172C241.213,492.80622155761716,237.151,495.5672215576172,231.27,500.0002215576172C231.27,500.0002215576172,231.27,500.0002215576172,231.27,500.0002215576172Z" fill="#000000" fill-opacity="1"/></g></g></svg>