<svg xmlns="http://www.w3.org/2000/svg" xmlns:xlink="http://www.w3.org/1999/xlink" fill="none" version="1.1" width="501.73931884765625" height="499.9962158203125" viewBox="0 0 501.73931884765625 499.9962158203125"><g style="mix-blend-mode:passthrough"><g style="mix-blend-mode:passthrough"><path d="M109.52501986999512,442.3580002384186C112.37741986999512,443.5210002384186,115.34331986999511,444.47200023841856,118.06791986999512,445.8910002384186C155.9713198699951,465.61600023841856,196.41531986999513,475.2950002384186,238.9453198699951,477.97700023841855C320.1033198699951,483.1000002384186,386.4313198699951,421.0430002384186,385.7213198699951,340.01300023841856C385.15331986999513,275.2180002384186,334.5203198699951,218.46900023841857,269.8243198699951,209.35800023841858C250.24131986999512,206.60500023841857,231.2253198699951,207.7410002384186,212.3803198699951,213.28900023841857C203.1423198699951,216.0140002384186,193.74731986999512,217.9010002384186,184.66531986999513,213.78600023841858C172.5603198699951,208.2940002384186,165.56431986999513,198.65800023841857,164.52831986999513,185.2050002384186C163.49231986999513,171.69600023841858,168.43131986999512,160.4420002384186,180.59231986999512,154.5670002384186C191.53431986999513,149.2880002384186,203.3263198699951,144.97400023841857,215.2323198699951,142.57600023841857C334.80431986999514,118.50900023841858,439.4623198699951,219.84500023841858,423.7103198699951,334.9760002384186C417.1823198699951,382.7140002384186,394.0653198699951,420.9300002384186,356.51631986999513,450.7160002384186C352.5573198699951,453.85200023841855,348.4843198699951,456.86100023841857,345.2773198699951,461.4730002384186C347.6473198699951,460.4370002384186,350.1593198699951,459.6560002384186,352.3583198699951,458.3510002384186C416.61431986999514,419.96500023841855,450.6443198699951,362.9880002384186,453.7943198699951,288.65700023841856C458.7043198699951,172.88800023841858,367.9973198699951,96.39920023841857,289.8903198699951,83.27270023841858C209.2013198699951,69.70630023841858,142.7313198699951,94.22800023841857,91.07691986999512,157.7460002384186C75.75081986999513,176.60600023841857,57.84201986999512,180.8770002384186,39.379719869995114,168.78700023841859C27.54457986999512,161.0380002384186,22.563589869995116,149.09000023841858,27.104659869995118,135.7220002384186C29.800919869995116,127.78900023841858,33.788549869995116,120.02700023841858,38.51411986999511,113.08800023841857C80.66091986999513,51.13050023841858,139.43931986999513,14.88710023841858,213.0473198699951,3.066070238418579C325.6233198699951,-15.027199761581421,455.29931986999514,46.972500238418576,493.1033198699951,188.66800023841859C531.6883198699951,333.28700023841856,435.71531986999514,461.53000023841855,309.8713198699951,492.6360002384186C263.3823198699951,504.1300002384186,217.13431986999512,501.9880002384186,171.4823198699951,487.4280002384186C146.0663198699951,479.32500023841857,125.77331986999512,463.91400023841857,109.52501986999512,442.3580002384186C109.52501986999512,442.3580002384186,109.52501986999512,442.3580002384186,109.52501986999512,442.3580002384186Z" fill="#000000" fill-opacity="1"/></g><g style="mix-blend-mode:passthrough"><path d="M318.5707236328125,423.78187792396545C300.9167236328125,450.47487792396544,265.2267236328125,464.62287792396546,232.1197236328125,458.0668779239654C190.9662236328125,449.92087792396546,160.8532736328125,414.11787792396547,159.4341923328125,371.70147792396546C158.1286336328125,332.30767792396546,187.0637236328125,294.20527792396547,226.9826236328125,284.4561979239655C257.2516236328125,277.07695792396544,285.05172363281247,283.07967792396545,309.0197236328125,303.75567792396544C323.2817236328125,316.0591779239655,330.7177236328125,332.1515779239655,333.5987236328125,350.3442779239655C335.6557236328125,363.3288779239655,330.9877236328125,374.6814779239655,321.9907236328125,383.9058779239655C310.0837236328125,396.1098779239654,289.0107236328125,394.3358779239654,278.4387236328125,379.96047792396547C274.3517236328125,374.3976779239655,271.8827236328125,367.5009779239655,269.35672363281253,360.9447779239655C260.3597236328125,337.64347792396546,238.4346236328125,329.92367792396544,216.72262363281249,342.6386779239655C187.2766236328125,359.89467792396545,180.9901236328125,395.75487792396547,202.6878236328125,422.8168779239654C222.29962363281248,447.28187792396545,257.1381236328125,455.48387792396545,287.4637236328125,441.83287792396544C298.3487236328125,436.95087792396544,308.2397236328125,429.8698779239654,318.5707236328125,423.78187792396545C318.5707236328125,423.78187792396545,318.5707236328125,423.78187792396545,318.5707236328125,423.78187792396545Z" fill="#000000" fill-opacity="1"/></g><g style="mix-blend-mode:passthrough"><path d="M34.6258,220.1859057053889C52.1941,220.1575240479889,67.9459,235.9660675479889,68.1871,253.84656754798888C68.4284,271.6702675479889,51.4136,288.42966754798886,33.4196,288.08906754798886C15.6952,287.74846754798887,0.0569167,271.8547675479889,0.00015335,254.1019675479889C-0.05661,235.6113675479889,15.6526,220.2142873479889,34.6258,220.1859057053889C34.6258,220.1859057053889,34.6258,220.1859057053889,34.6258,220.1859057053889Z" fill="#000000" fill-opacity="1"/></g><g style="mix-blend-mode:passthrough"><path d="M102.54314765625,364.7905305606842C102.31604765624999,377.7183305606842,91.57364765625,388.1628305606842,78.83024765625,387.8648305606842C66.68284765625,387.5810305606842,55.07479165625,375.9020305606842,55.13155498325,364.0242305606842C55.20250915625,351.7208305606842,66.39904765625,340.46743756068423,78.74514765625,340.29714723068423C92.22644765625,340.1126665606842,102.78434765624999,350.96863056068423,102.54314765625,364.7905305606842C102.54314765625,364.7905305606842,102.54314765625,364.7905305606842,102.54314765625,364.7905305606842Z" fill="#000000" fill-opacity="1"/></g></g></svg>