<svg xmlns="http://www.w3.org/2000/svg" xmlns:xlink="http://www.w3.org/1999/xlink" fill="none" version="1.1" width="413.8067626953125" height="500" viewBox="0 0 413.8067626953125 500"><g style="mix-blend-mode:passthrough"><g style="mix-blend-mode:passthrough"><path d="M210.844,500C206.378,496.417,201.966,492.807,197.487,489.277C167.727,465.894,137.591,443.099,103.9,425.384C88.1634,417.108,72.8952,407.856,57.8276,398.39C45.7815,390.836,33.6686,383.109,22.8124,374.004C4.42902,358.589,-3.61954,338.788,1.5278,314.522C5.81947,294.267,13.7343,275.523,24.6173,258.008C29.0694,250.842,33.8557,243.837,38.8426,237.031C61.9588,205.559,89.701,177.429,107.523,139.687C109.007,143.911,110.063,145.837,110.33,147.855C113.472,171.025,125.893,188.794,144.824,201.067C160.761,211.402,178.436,219.076,195.335,227.927C197.528,229.076,199.76,230.159,201.806,233.261C197.621,233.769,193.436,234.25,189.252,234.799C145.052,240.588,103.966,270.148,96.3992,322.277C93.4044,342.946,99.5143,360.902,111.026,377.547C113.285,380.809,115.865,383.857,118.874,387.735C117.029,387.975,115.638,388.617,115.037,388.176C100.771,377.641,85.075,368.496,72.7214,356.035C45.835,328.895,42.5059,298.144,60.5149,264.426C64.5927,256.778,69.6999,249.679,74.8873,241.47C35.6072,258.637,16.0607,299.829,28.5613,337.023C33.2541,350.995,41.9845,362.145,53.4156,371.023C61.1165,376.999,69.3255,382.494,77.8287,387.267C121.601,411.88,167.994,431.975,207.902,463.554C211.218,461.816,214.079,460.666,216.553,458.955C251.006,435.144,286.851,413.658,324.005,394.286C335.436,388.323,346.533,381.638,357.269,374.512C364.622,369.619,371.828,364.084,377.831,357.639C400.934,332.852,401.469,300.003,379.716,274.092C371.374,264.159,361.641,255.843,348.378,248.516C349.354,252.808,349.808,255.468,350.557,258.035C353.793,269.105,357.79,280.002,360.25,291.232C366.654,320.351,358.298,345.847,339.086,367.947C307.426,404.393,231.941,437.216,166.537,407.963C152.552,401.706,139.423,394.219,130.652,381.157C113.593,355.794,128.607,322.464,158.368,319.87C165.708,319.228,173.181,320.258,183.717,320.619C178.623,325.646,175.681,328.587,172.7,331.502C160.921,343,156.951,357.185,159.598,373.015C161.697,385.582,168.876,394.928,180.602,400.543C196.364,408.097,213.05,410.022,230.11,407.896C247.463,405.73,264.002,400.449,279.15,391.505C318.898,368.028,328.297,315.552,299.672,279.199C286.142,262.019,269.644,248.93,249.629,240.28C234.522,233.756,218.946,228.221,204.186,221.001C189.867,214.009,175.147,206.95,162.673,197.257C131.321,172.897,126.414,138.056,148.086,105.032C152.472,98.3475,157.245,91.8766,162.258,85.6329C182.313,60.6717,199.159,34.2264,201.859,0C204.333,1.39045,206.164,1.80491,206.913,2.92796C218.331,19.8674,230.965,36.1784,240.591,54.0938C253.48,78.0924,249.723,92.9863,228.813,110.447C215.256,121.771,203.678,134.406,196.712,150.757C186.605,174.448,193.757,196.548,217.275,211.161C215.617,208.34,214.935,206.923,214.012,205.666C201.03,188.072,202.194,169.982,212.488,151.853C223.01,133.323,238.145,119.552,257.985,109.712C249.469,141.077,243.827,171.801,259.697,202.23C269.336,220.707,285.3,241.136,300.849,252.166C300.073,241.925,294.806,234.959,289.979,227.646C285.112,220.266,279.925,212.886,276.529,204.81C270.58,190.652,271.208,175.972,277.706,162.027C282.492,151.759,287.225,141.251,296.557,133.042C297.479,135.034,298.201,136.09,298.469,137.253C307.239,174.421,328.163,203.407,358.365,226.148C376.16,239.545,389.249,256.912,399.704,276.205C404.531,285.109,408.127,294.842,411.002,304.588C416.456,323.092,414.09,341.248,402.726,356.784C394.156,368.509,384.53,380.207,373.112,388.938C355.156,402.669,335.957,415.102,316.09,425.905C279.912,445.599,245.939,468.06,215.924,496.363C214.708,497.567,213.117,498.409,210.844,500C210.844,500,210.844,500,210.844,500Z" fill="#000000" fill-opacity="1"/></g><g style="mix-blend-mode:passthrough"><path d="M148.01963806152344,301.3529909667969C156.72330806152343,275.3087909667969,180.25393806152343,258.81063096679685,207.75543806152342,260.1476003667969C219.09293806152345,260.69575796679686,230.80483806152344,262.94186096679687,241.40693806152342,266.91266096679686C264.6836380615234,275.6029909667969,276.9436380615234,294.09329096679687,281.00763806152344,317.99829096679684C283.1606380615234,330.6326909667969,278.60163806152343,341.64929096679685,269.6836380615234,350.6871909667969C259.58963806152343,360.92799096679687,247.46343806152345,368.04099096679687,232.34233806152344,374.0309909667969C233.25143806152346,371.11599096679686,233.51883806152344,369.64499096679685,234.14723806152344,368.3349909667969C247.79773806152343,340.24549096679686,235.91203806152345,310.1502909667969,206.59233806152344,298.6790909667969C191.08343806152345,292.60919096679686,175.40073806152344,292.5958909667969,159.61113806152343,297.3821909667969C155.96123806152343,298.49189096679686,152.39152806152345,299.85559096679685,148.01963806152344,301.3529909667969C148.01963806152344,301.3529909667969,148.01963806152344,301.3529909667969,148.01963806152344,301.3529909667969Z" fill="#000000" fill-opacity="1"/></g></g></svg>