<svg viewBox="0 0 64 64" fill="currentColor" xmlns="http://www.w3.org/2000/svg">
  <defs>
    <linearGradient id="Gradient01" gradientTransform="rotate(90)">
      <stop offset="0%" stop-color="currentColor" stop-opacity="0.5" />
      <stop offset="100%" stop-color="currentColor" stop-opacity="0.1" />
    </linearGradient>
  </defs>

  <!-- 四向方块 -->
  <g>
    <path d="M 30.73 1.77 L 32 3.04 L 33.27 1.77 L 32 0.5" />
    <path d="M 60.96 32 L 62.23 33.27 L 63.5 32 L 62.23 30.73" />
    <path d="M 30.73 62.23 L 32 63.5 L 33.27 62.23 L 32 60.96" />
    <path d="M 0.5 32 L 1.77 33.27 L 3.04 32 L 1.77 30.73" />
  </g>

  <!-- 四向角条 -->
  <g fill-opacity="0.5">
    <path d="M 3.54 32 L 8.49 36.95 L 8.31 35.36 L 4.95 32 L 8.31 28.64 L 8.49 27.05" />
    <path d="M 32 60.46 L 36.95 55.51 L 35.36 55.69 L 32 59.05 L 28.64 55.69 L 27.05 55.51" />
    <path d="M 32 60.46 L 36.95 55.51 L 35.36 55.69 L 32 59.05 L 28.64 55.69 L 27.05 55.51" />
    <path d="M 60.46 32 L 55.51 27.05 L 55.69 28.64 L 59.05 32 L 55.69 35.36 L 55.51 36.95" />
    <path d="M 32 3.54 L 29.27 6.27 L 30.5 6.45 L 32 4.95 L 36.38 9.49 L 38.63 10.17" />
  </g>

  <!-- 中上图块 -->
  <g>
    <path d="M 35.54 7.99 Q 35.61 10.02 33.58 10.1 Q 33.53 11.71 32.27 12.72 Q 34 7 28.24 6.71 Q 27.21 6.69 26.4 6.05 Q 25.47 5.37 26.19 4.41 Q 26.74 3.74 27.148 4.458 Q 27.47 5.18 26.869 5.453 Q 28.781 5.374 28.165 4.021 Q 27.105 2.381 25.766 4.598 Q 23.62 9.47 28.93 10.98 Q 30.66 11.49 31.67 12.98 L 31.77 14.44 Q 30 13 28.79 15.12 L 29.2 15.85 L 28.07 15.66 Q 27.25 16.26 27.25 17.28 Q 28.64 18.14 28.39 19.76 Q 29.67 19.25 29.38 17.09 Q 29.82 19.95 32 20.75 Q 34.04 20 34.62 17.9 Q 34.33 19.25 35.61 19.76 Q 35.36 18.14 36.75 17.28 Q 36.75 16.26 35.93 15.66 L 34.8 15.85 L 35.21 15.12 Q 34.4 12.9 32.09 13.45 Q 33.35 12.66 34.73 12.14 Q 38 11 35.54 7.99 M 34.43 15.84 L 29.57 15.84 Q 32 14.64 34.43 15.84" />
  </g>

  <!-- 中间外圈图块 -->
  <g>
    <path d="M 32 21.44 L 29.54 19.5 Q 29.91 27.44 23.39 32 Q 19.16 34.75 21.22 39.37 Q 25.29 39.58 28.51 42.08 Q 29.49 39.41 32 38.06 Q 34.51 39.41 35.49 42.08 Q 38.71 39.58 42.78 39.37 Q 44.84 34.75 40.61 32 Q 34.09 27.44 34.46 19.5 M 33.8 23.87 Q 35.74 28.9 39.38 32.28 L 41.18 34.09 Q 44.18 37.38 39.83 38.73 Q 37.48 39.55 35.38 38.22 L 28.82 34.29 Q 25.59 32.23 22.51 34.51 Q 23.06 33 24.37 32.08 Q 28.46 28.81 30.2 23.87 Q 32 21 33.8 23.87" />
  </g>

  <!-- 中间内圈图块 -->
  <g fill="url(#Gradient01)">
    <path d="M 30.2 23.87 Q 32 21 33.8 23.87 Q 35.74 28.9 39.38 32.28 L 41.18 34.09 Q 39.6 32.36 37.63 33.4 Q 39.208 34.122 37.812 35.014 Q 32.47 36.67 30.125 32.749 Q 29.301 29.84 32.68 30.02 Q 30.892 32.736 33.924 32.606 Q 35.579 32.128 34.62 30.47 Q 32.43 26.73 29.14 29.01 Q 30.67 26.58 30.25 23.74" />
  </g>

  <!-- 中下图块 -->
  <g>
    <path d="M 32 38.87 Q 34.58 40.5 35.43 43.43 Q 38.73 39.3 43.9 40.4 L 43.1 41.59 Q 38.63 40.77 35.85 44.36 Q 38.42 41.72 42.1 41.79 Q 32 52 21.9 41.79 Q 25.58 41.72 28.15 44.36 Q 25.37 40.77 20.9 41.59 L 20.1 40.4 Q 25.27 39.3 28.57 43.43 Q 29.42 40.5 32 38.87 M 32 40.17 Q 29 42 29.61 45.2 Q 29.27 42.3 32 41.25 Q 34.73 42.3 34.39 45.2 Q 35 42 32 40.17" />
    <path d="M 32 47 L 33.36 49.24 L 32 51.48 L 30.64 49.24" />
  </g>

  <!-- 下方外圈图块 -->
  <g>
    <path d="M 10.46 37.68 A 22.19 22.19 0 0 0 52.52 40.24 Q 53.7 37.26 52.52 33.06 A 3.8 3.8 0 1 0 48.97 37.88 Q 49.78 42.8 46.91 46.89 Q 47.16 45.2 46.35 43.7 Q 36 59 21.04 50.03 Q 20.81 49.36 21.32 48.85 Q 13.74 45.34 10.46 37.68 M 51.69 35.91 Q 51.69 34.75 50.76 34.05 A 1.72 1.72 0 1 1 49.77 31.91 Q 52.51 33.01 51.69 35.91" />
  </g>

  <!-- 下方外圈内部图块 -->
  <g fill-opacity="0.5">
    <path d="M 51.69 35.91 Q 51.69 34.75 50.76 34.05 A 1.72 1.72 0 1 1 49.77 31.91 Q 52.51 33.01 51.69 35.91" />
  </g>

  <!-- 右上外圈图块 -->
  <g fill="url(#Gradient01)">
    <path d="M 53.92 34.81 A 22.19 22.19 0 0 0 38.47 10.8 A 0.28 0.28 0 0 0 38.27 11.32 Q 47.91 15.59 48.9 26.09 Q 53.69 29.14 53.92 34.81" />
  </g>

  <!-- 右上外圈叠层图块 -->
  <g>
    <path d="M 53.92 34.81 Q 54.79 22.58 47.42 16.13 Q 45.75 14.66 43.49 14.51 A 1.86 1.86 0 0 0 41.64 17.31 Q 42.75 19.18 44.95 19.43 A 0.98 0.98 0 0 1 46.08 17.98 Q 54.67 24.22 53.92 34.81" />
  </g>

  <!-- 左上外圈图块 -->
  <g>
    <path d="M 24.98 11.3 A 0.18 0.18 0 0 0 24.86 10.96 Q 9.83 16 9.72 31.71 Q 9.97 28.6 12.03 25.88 A 2.77 2.77 0 0 0 14.61 29.88 Q 19.56 28.92 19.67 23.88 Q 19.22 24.76 18.34 24.31 Q 16.68 23.47 16.91 21.62 Q 18.42 14.49 24.98 11.3" />
  </g>

  <!-- 左上外圈叠层图块 -->
  <g fill="url(#Gradient01)">
    <path d="M 12.03 25.88 A 2.77 2.77 0 0 0 14.61 29.88 Q 13.29 34.44 16.28 38.13 A 0.86 0.86 0 0 0 17.76 37.93 A 1.96 1.96 0 0 1 15.53 41.1 Q 11.78 39.23 11.78 35.25 A 0.58 0.58 0 0 1 10.72 35.57 Q 9.72 33.96 9.72 31.71 Q 9.97 28.6 12.03 25.88 Z" />
  </g>
</svg>